
<svg width="240px" height="378px" viewBox="0 0 240 378" version="1.1" xmlns="http://www.w3.org/2000/svg" xmlns:xlink="http://www.w3.org/1999/xlink">
    <defs>
        <linearGradient x1="49.9998159%" y1="0.000360805667%" x2="49.9998159%" y2="99.9998433%" id="linearGradient-1">
            <stop stop-color="#004E8F" offset="0%"></stop>
            <stop stop-color="#00354F" offset="100%"></stop>
        </linearGradient>
        <linearGradient x1="17.8127231%" y1="85.7503459%" x2="76.8037926%" y2="-3.45761199%" id="linearGradient-2">
            <stop stop-color="#0086FD" offset="0%"></stop>
            <stop stop-color="#00B9FB" offset="100%"></stop>
        </linearGradient>
        <linearGradient x1="-7.49844099e-05%" y1="49.9995994%" x2="99.9996142%" y2="49.9995994%" id="linearGradient-3">
            <stop stop-color="#004E8F" offset="0%"></stop>
            <stop stop-color="#00354F" offset="100%"></stop>
        </linearGradient>
        <linearGradient x1="42.3563405%" y1="89.2040277%" x2="93.3149174%" y2="5.80982752%" id="linearGradient-4">
            <stop stop-color="#0086FD" offset="0%"></stop>
            <stop stop-color="#00B9FB" offset="100%"></stop>
        </linearGradient>
        <linearGradient x1="18.5052444%" y1="107.143364%" x2="59.643105%" y2="28.2517956%" id="linearGradient-5">
            <stop stop-color="#0086FD" offset="0%"></stop>
            <stop stop-color="#00B9FB" offset="100%"></stop>
        </linearGradient>
    </defs>
    <g id="Fliply" stroke="none" stroke-width="1" fill="none" fill-rule="evenodd">
        <g id="01-Onboarding" transform="translate(-73.000000, -110.000000)">
            <g id="Group-118" transform="translate(63.000000, 110.000000)">
                <path d="M118.207695,91.770424 L118.207695,117.893338 L60.5260412,117.893338" id="Stroke-1" stroke="#EFEFEF" stroke-width="2.06569054" stroke-linecap="round" stroke-linejoin="round" stroke-dasharray="5.508507810320173"></path>
                <path d="M169.263578,177.826427 L169.263578,195.121959 L207.939502,195.1254 L207.939502,126.478685" id="Stroke-2" stroke="#EFEFEF" stroke-width="2.06569054" stroke-linecap="round" stroke-linejoin="round" stroke-dasharray="5.508507810320173"></path>
                <path d="M134.228227,82.797765 L136.982481,82.797765" id="Stroke-3" stroke="#EFEFEF" stroke-width="2.06569054" stroke-linecap="round" stroke-linejoin="round"></path>
                <polyline id="Stroke-4" stroke="#EFEFEF" stroke-width="2.06569054" stroke-linecap="round" stroke-linejoin="round" points="140.661269 82.797765 143.415524 82.797765 143.415524 85.5505154"></polyline>
                <path d="M143.415524,90.9410891 L143.415524,119.253816 L143.415524,142.151194" id="Stroke-5" stroke="#EFEFEF" stroke-width="2.06569054" stroke-linecap="round" stroke-linejoin="round" stroke-dasharray="5.393518175397601,5.393518175397601"></path>
                <polyline id="Stroke-6" stroke="#EFEFEF" stroke-width="2.06569054" stroke-linecap="round" stroke-linejoin="round" points="143.415524 144.84655 143.415524 147.5993 146.169778 147.5993"></polyline>
                <path d="M152.949856,147.5993 L163.119939,147.5993" id="Stroke-7" stroke="#EFEFEF" stroke-width="2.06569054" stroke-linecap="round" stroke-linejoin="round" stroke-dasharray="6.779595974513463,6.779595974513463"></path>
                <polyline id="Stroke-8" stroke="#EFEFEF" stroke-width="2.06569054" stroke-linecap="round" stroke-linejoin="round" points="166.509324 147.5993 169.263578 147.5993 169.263578 150.352051"></polyline>
                <path d="M169.263578,153.681434 L169.263578,156.434184" id="Stroke-9" stroke="#EFEFEF" stroke-width="2.06569054" stroke-linecap="round" stroke-linejoin="round"></path>
                <path d="M45.9848046,24.1251051 L45.9779189,18.2927151 C49.6231742,18.0931407 53.150685,17.1166024 56.3648995,15.4339837 C57.7007127,18.1082808 58.5173491,21.0502828 58.7108354,24.1120296 L45.9848046,24.1251051 Z M45.9930673,32.733644 L45.9868702,26.9108886 L58.7239181,26.8991894 C58.5407602,29.9630007 57.7330752,32.9098201 56.4055248,35.59444 C53.1968188,33.9235204 49.6465853,32.9311539 45.9930673,32.733644 Z M45.9958216,35.5476432 C49.1577052,35.7403357 52.2328299,36.5757955 55.0208236,38.0099785 C53.3696482,40.5177342 51.2206415,42.7158054 48.640594,44.438339 C47.8005465,44.9992119 46.9129882,45.4816315 46.00615,45.9248243 L45.9958216,35.5476432 Z M43.2078279,35.550396 L43.2174678,45.9489109 C39.5157503,44.1424184 36.4282315,41.371775 34.211057,38.0203013 C36.9900994,36.5874947 40.0569613,35.7499704 43.2078279,35.550396 Z M30.4742228,26.9274051 L43.1988766,26.9129532 L43.2043851,32.7467196 C39.5598184,32.9476704 36.0336847,33.922144 32.8194702,35.6061391 C31.4850341,32.9311539 30.6683978,29.9877754 30.4742228,26.9274051 Z M43.1899253,18.3057906 L43.1961223,24.1271697 L30.4618287,24.1402453 C30.6449866,21.076434 31.4512945,18.1282382 32.7788449,15.4429301 C35.9875509,17.1145379 39.5377844,18.1069044 43.1899253,18.3057906 Z M43.1864824,15.4917915 C40.0266645,15.2977226 36.9515398,14.4615746 34.1649233,13.0273916 C35.8160986,10.5203241 37.9644167,8.32294105 40.5451528,6.59903107 C41.3852003,6.03815816 42.2713815,5.55711501 43.1768425,5.113234 L43.1864824,15.4917915 Z M45.9634591,5.08983562 C49.6672422,6.8970163 52.7561382,9.66559509 54.9733127,13.017757 C52.1942703,14.4505636 49.1260313,15.2894643 45.9751647,15.4883505 L45.9634591,5.08983562 Z M67.2689913,24.1037713 L61.497452,24.109965 C61.2963914,20.5437768 60.3454852,17.1179788 58.7693633,14.0197581 C60.0094662,13.1856748 61.1800242,12.2428577 62.2569375,11.2030062 C65.248746,14.8772399 66.9763518,19.3511476 67.2689913,24.1037713 Z M58.7611006,7.74692801 C59.1597788,8.06349432 59.5364231,8.4089645 59.9137559,8.75305831 C60.0624856,8.88931946 60.2167238,9.01938692 60.3633879,9.159089 C59.4310729,10.0626793 58.4161302,10.8630415 57.3522996,11.5863267 C55.0559403,8.07932263 51.9147135,5.13456782 48.1544682,3.09271515 C51.9147135,3.69487932 55.4800954,5.22196764 58.495315,7.55010635 C58.5834512,7.61892511 58.6757187,7.67810925 58.7611006,7.74692801 Z M30.4914369,7.69118481 C31.0415992,7.25693843 31.6082869,6.84609042 32.1928774,6.46621086 C32.1990744,6.46276992 32.2038944,6.45932898 32.2087143,6.45726442 C32.7919276,6.07876123 33.3930436,5.73053829 34.0065537,5.40915467 C34.0561302,5.38300355 34.1057068,5.35685242 34.1552834,5.33070129 C36.0261105,4.36655043 38.0236332,3.66391088 40.0900123,3.24411643 C40.1953625,3.22278261 40.3014013,3.20488974 40.4074401,3.18493229 C40.5919751,3.15052291 40.779953,3.13331822 40.9658651,3.10234978 C40.2938271,3.46846559 39.6334947,3.85660341 38.9965735,4.28259154 C36.0681128,6.23704438 33.6361065,8.73791818 31.7749193,11.5904559 C30.7186629,10.871988 29.7071631,10.0771313 28.779668,9.18248738 C29.2768109,8.70144424 29.8001192,8.2479286 30.3371987,7.81643496 C30.3881524,7.7751437 30.4391061,7.73247607 30.4914369,7.69118481 Z M26.8985125,11.2339747 C27.9781801,12.2683207 29.1439181,13.1966858 30.3750697,14.0183818 C28.8003249,17.1344953 27.86319,20.5699279 27.6724579,24.1423098 L21.8885244,24.1485035 C22.1735897,19.3779869 23.949395,14.8799927 26.8985125,11.2339747 Z M21.9188212,26.9356634 L27.6869177,26.9301579 C27.8893554,30.4949697 28.8388845,33.9214559 30.4150064,37.0183001 C29.1783463,37.8510072 28.0132968,38.7903833 26.9377606,39.8240411 C24.0402854,36.258541 22.2211006,31.8011498 21.9188212,26.9356634 Z M40.2111995,47.8214694 C39.6513974,47.7113593 39.1005465,47.5661518 38.5517614,47.4140623 C38.4002774,47.3720828 38.2439735,47.3411144 38.0924896,47.295694 C37.5526558,47.1353463 37.0224619,46.939901 36.4957108,46.7389502 C36.3380297,46.6783897 36.1769059,46.6288402 36.0219791,46.5648388 C35.5496245,46.3735226 35.0903526,46.1498616 34.6310808,45.9262007 C34.4252003,45.8243489 34.2124342,45.7341963 34.0086194,45.6254627 C33.6292209,45.4272646 33.2642822,45.2022273 32.8959007,44.9813191 C32.6239181,44.816154 32.3457385,44.6613118 32.0820186,44.4865122 C31.7976419,44.3007015 31.5304793,44.093557 31.2543653,43.8939826 C30.9238548,43.6544933 30.5905901,43.4198214 30.2731623,43.1631274 C30.0707246,42.9979623 29.8799925,42.8176572 29.6823748,42.6469867 C29.3924896,42.3937336 29.1060471,42.138416 28.8292446,41.8720874 C29.7594939,40.971938 30.7703052,40.1729522 31.830693,39.4517316 C34.1298065,42.9594238 37.2710333,45.9034905 41.0326558,47.9467195 C41.0044247,47.9419022 40.975505,47.9384613 40.9500281,47.9336439 C40.7035224,47.8951054 40.4521967,47.8682661 40.2111995,47.8214694 Z M58.7562806,43.297324 C58.2529407,43.697161 57.7378952,44.0811697 57.2028813,44.438339 C54.4630871,46.2682299 51.3845196,47.4594827 48.157911,47.9680533 C48.8512945,47.5929911 49.5329723,47.1931541 50.1891734,46.7540904 L50.1912391,46.7540904 C53.1169454,44.7989493 55.5482632,42.2994519 57.4094504,39.4482906 C58.4657068,40.1660703 59.4758295,40.9602388 60.4060788,41.8541945 C59.9468069,42.2980755 59.4661896,42.7171818 58.9738667,43.1204597 C58.9015675,43.1789557 58.8292683,43.2381398 58.7562806,43.297324 Z M62.2858572,39.8040836 C61.2061896,38.7704258 60.0418287,37.8420607 58.8093,37.0183001 C60.3826676,33.9042512 61.3211797,30.4681304 61.5119118,26.8957485 L67.2958453,26.8895548 C67.0094029,31.6621359 65.2356633,36.159442 62.2858572,39.8040836 Z M70.1265299,25.4939103 C70.1189557,19.0724316 67.7303289,13.0335853 63.4199213,8.32638199 C63.3910016,8.28715529 63.3772304,8.24104672 63.3434907,8.2031964 C63.1706613,8.01738575 62.9909462,7.84120972 62.814674,7.66159275 C62.749949,7.59483855 62.6941754,7.52189066 62.6287618,7.45513646 C62.5908908,7.42003889 62.5509541,7.38907045 62.5151488,7.35397288 C62.0359086,6.88187618 61.5373886,6.43455422 61.0250974,6.00512515 C60.858465,5.86404669 60.6925212,5.72365642 60.5217575,5.58670708 C60.0721255,5.22884952 59.6107879,4.88819665 59.1398105,4.56199572 C58.8719593,4.37618506 58.6020424,4.19519172 58.3300598,4.02039206 C57.9238073,3.76094533 57.5120463,3.51388598 57.0933997,3.279214 C56.7415438,3.08101596 56.3841793,2.89245256 56.0247492,2.71145921 C55.8753309,2.63713495 55.7238469,2.56969256 55.5744286,2.49880924 C54.9540329,2.20357675 54.3281287,1.92898989 53.6877646,1.68537148 C53.453653,1.5952189 53.2147215,1.51470095 52.9778556,1.43143024 C52.4497274,1.24974871 51.9181564,1.07839 51.377634,0.930429659 C50.9300677,0.8058677 50.4790586,0.693693119 50.0246067,0.594594102 C49.7230159,0.527839903 49.4186708,0.468655768 49.1129486,0.414288946 C48.4808473,0.300737989 47.8453032,0.201638972 47.2042505,0.135572961 C47.0927033,0.124561959 46.9790903,0.11836827 46.8668544,0.109421831 C46.1128774,0.0406030694 45.3533918,0 44.5918406,0 L44.564298,0 C39.5054219,0.00481731332 34.6145552,1.48648525 30.4225806,4.28534429 C23.299391,9.04416167 19.0502656,16.9913523 19.0571512,25.5455244 C19.0640368,32.1376736 21.6069019,38.1324759 25.7327745,42.6614386 C25.7706455,42.71787 25.7919909,42.7832478 25.8395018,42.8341737 C26.6182672,43.6765153 27.4548718,44.4548555 28.3321017,45.1774525 C28.36171,45.2022273 28.3913182,45.227002 28.4223036,45.2517768 C29.002074,45.7266263 29.6011243,46.1725718 30.2187658,46.5930545 C30.3110333,46.6570559 30.4060551,46.7189928 30.4983226,46.7802415 C31.0732731,47.1614974 31.6606178,47.5186668 32.2617337,47.8496851 C32.4201033,47.9370849 32.5791615,48.0203556 32.7402854,48.1043145 C33.305596,48.4009233 33.8805465,48.6823921 34.4692683,48.9356451 C34.6689518,49.0230449 34.8713894,49.100122 35.0738271,49.1820163 C35.6542862,49.4160001 36.2388766,49.6348437 36.8351726,49.8254717 C37.0341674,49.8894732 37.235228,49.9424636 37.4362885,50.0002714 C38.0497986,50.1798883 38.6674401,50.343677 39.2947215,50.4778736 C39.4558453,50.5115948 39.6190349,50.5398105 39.7801587,50.5707789 C40.4976419,50.7091046 41.2185679,50.8233437 41.9463795,50.8997326 C42.010416,50.9066145 42.0737638,50.9100554 42.1371116,50.9162491 C42.9578793,50.9960788 43.7855327,51.0401228 44.6166289,51.0387465 C45.8828972,51.0380583 47.1374599,50.9444648 48.3734314,50.7600305 C48.4739617,50.7455785 48.5724262,50.7208038 48.6729565,50.7056637 C49.1873135,50.622393 49.7009818,50.5329286 50.2077646,50.4193776 C53.2463954,49.7380719 56.1404278,48.5027751 58.7611006,46.7520258 C65.8863558,41.9938966 70.1334156,34.0473942 70.1265299,25.4939103 Z" id="Fill-10" fill="#004C8B" opacity="0.100000001"></path>
                <g id="Group-14" transform="translate(41.313811, 66.825963)">
                    <polygon id="Fill-12" points="7.35867827 6.78415353 0.614198655 6.78415353 6.0710645 10.7467378 3.98747131 17.1572055 9.44433716 13.1953094 14.9005144 17.1572055 12.8148556 10.7467378 18.2717214 6.78415353 11.5279304 6.78415353 9.44433716 0.373685876"></polygon>
                </g>
                <g id="Group-17" transform="translate(41.313811, 151.473040)">
                    <polygon id="Fill-15" points="9.40922042 4.29360255 3.95235457 0.331706432 6.03801345 6.74217409 0.581147606 10.7054466 7.32562723 10.7054466 9.40922042 17.1145379 11.4941907 10.7054466 18.2386704 10.7054466 12.7818045 6.74217409 14.8653977 0.331706432"></polygon>
                </g>
                <g id="Group-20" transform="translate(84.004749, 108.805407)">
                    <polygon id="Fill-18" points="7.07912149 5.73535561 0.664463791 3.6515235 4.62990107 9.10609856 0.664463791 14.5592972 7.07912149 12.4761533 11.0424931 17.929352 11.0424931 11.1885543 17.4550851 9.10609856 11.0424931 7.02226645 11.0424931 0.281468736"></polygon>
                </g>
                <g id="Group-23" transform="translate(0.000000, 108.805407)">
                    <polygon id="Fill-21" points="6.43324891 6.98854526 0.0185912149 9.07100099 6.43324891 11.1548331 6.43324891 17.8956308 10.3966205 12.4417439 16.8119668 14.5248879 12.8458409 9.07100099 16.8119668 3.61780231 10.3966205 5.70094622 6.43324891 0.247747542"></polygon>
                </g>
                <g id="Group-26" transform="translate(70.233478, 79.901527)">
                    <polygon id="Fill-24" points="6.66116343 7.11035447 0.650692521 10.1700366 7.31529877 11.22434 8.36880095 17.8818671 11.4315315 11.8760537 18.0926949 12.9303571 13.3230154 8.16534608 16.3836803 2.15815637 10.3759636 5.2185267 5.60628413 0.451451077"></polygon>
                </g>
                <g id="Group-29" transform="translate(13.082707, 137.709287)">
                    <polygon id="Fill-27" points="6.73277404 6.30035764 0.0716106055 5.2467424 4.84129007 10.0124416 1.78062525 16.0189432 7.78903047 12.9585728 12.5587099 17.7256485 11.5024535 11.0681215 17.5129244 8.00637474 10.8496953 6.95344769 9.79619311 0.2945443"></polygon>
                </g>
                <g id="Group-32" transform="translate(70.233478, 137.709287)">
                    <polygon id="Fill-30" points="7.2884448 6.97753426 0.627281361 8.0311495 6.63775228 11.0915198 5.58218441 17.749735 10.3525524 12.9819712 16.3602691 16.0430297 13.2989157 10.0365282 18.067218 5.27014078 11.405366 6.32444421 8.34470123 0.320007242"></polygon>
                </g>
                <g id="Group-35" transform="translate(13.082707, 79.901527)">
                    <polygon id="Fill-33" points="7.81450732 5.19306376 1.80403641 2.1340698 4.86470123 8.13988314 0.097776019 12.9069588 6.75893945 11.851279 9.81960427 17.8584687 10.8751721 11.2002535 17.5370241 10.1452619 11.5265532 7.0862679 12.5821211 0.428052698"></polygon>
                </g>
                <g id="Group-57" transform="translate(110.858726, 62.008649)">
                    <path d="M18.2987131,11.201561 C18.3000902,11.1341186 18.3111072,11.0942038 18.3090416,11.0419015 C18.3055987,10.1500104 18.3290099,9.25330189 18.2952703,8.35865798 C18.2780562,7.87279753 18.2236597,7.38074338 18.1066039,6.90795849 C17.2940989,3.6727885 14.140478,1.66190428 10.8470787,2.25581019 C8.01708271,2.76850997 5.85430471,5.19643588 5.71521488,8.06204912 C5.66494974,9.07437311 5.69731223,10.0942672 5.6959351,11.1072793 C5.69731223,11.1437533 5.70832924,11.1788508 5.71521488,11.2194539 C9.90650099,11.2132602 14.0929672,11.2043138 18.2987131,11.201561 Z M11.9949141,12.7293375 C9.15458963,12.7369076 6.3073795,12.738284 3.46223506,12.7437895 C2.65317293,12.7437895 2.16911278,13.2344673 2.16911278,14.0417113 C2.17668698,18.5479639 2.18357262,23.0562809 2.18976969,27.5611571 C2.19114681,28.3917995 2.67864978,28.8721545 3.51456589,28.8721545 C9.1607867,28.8611435 14.806319,28.8528852 20.455294,28.8425624 C20.5282818,28.8425624 20.6005809,28.8425624 20.6721915,28.8398097 C21.3566237,28.8287987 21.8696035,28.3195398 21.8696035,27.6396105 C21.8613407,23.0610982 21.8544551,18.4832742 21.8434381,13.9061384 C21.8434381,13.4402354 21.6320491,13.0679259 21.2099596,12.8635341 C21.0095877,12.7658115 20.7596391,12.7224557 20.5296589,12.7224557 C17.685203,12.7183265 14.8386814,12.727273 11.9949141,12.7293375 Z M19.8183728,11.2043138 L20.6060894,11.2043138 C22.17326,11.2063783 23.3527693,12.3762973 23.3596549,13.9433005 C23.365852,18.5032317 23.3727376,23.0666037 23.3796233,27.6203412 C23.3796233,29.1715161 22.1946055,30.3517579 20.6343205,30.3572634 C18.503905,30.3641452 16.3741781,30.3655216 14.2423854,30.3703389 C10.6529038,30.3758444 7.05309379,30.3813499 3.46223506,30.3841027 C2.13881599,30.3882318 1.05570558,29.5617185 0.761000396,28.3167871 C0.708669569,28.1048253 0.684569846,27.8722179 0.684569846,27.6540624 C0.670798575,23.1003249 0.664601504,18.5452111 0.661158686,13.9907854 C0.661158686,12.8270602 1.19892679,11.9874713 2.24485477,11.4733951 C2.61943332,11.2875845 3.02568579,11.2215185 3.44364385,11.2297767 C3.68119826,11.2318413 3.92357262,11.2297767 4.18591531,11.2297767 L4.18591531,11.0185031 C4.18591531,10.1809788 4.18384962,9.34207809 4.18384962,8.49836007 C4.17902968,4.64726216 6.86236169,1.43549055 10.6611666,0.749367497 C14.7842849,0.0061248698 18.877795,2.79397291 19.6565603,6.89694749 C19.7550249,7.41171182 19.7935845,7.93748716 19.8073558,8.46395069 C19.8342097,9.30009865 19.8142414,10.1417521 19.8183728,10.9854701 L19.8183728,11.2043138 Z" id="Fill-39" fill="#EFEFEF"></path>
                    <path d="M18.2987131,11.201561 C18.3000902,11.1341186 18.3111072,11.0942038 18.3090416,11.0419015 C18.3055987,10.1500104 18.3290099,9.25330189 18.2952703,8.35865798 C18.2780562,7.87279753 18.2236597,7.38074338 18.1066039,6.90795849 C17.2940989,3.6727885 14.140478,1.66190428 10.8470787,2.25581019 C8.01708271,2.76850997 5.85430471,5.19643588 5.71521488,8.06204912 C5.66494974,9.07437311 5.69731223,10.0942672 5.6959351,11.1072793 C5.69731223,11.1437533 5.70832924,11.1788508 5.71521488,11.2194539 C9.90650099,11.2132602 14.0929672,11.2043138 18.2987131,11.201561 Z M11.9949141,12.7293375 C9.15458963,12.7369076 6.3073795,12.738284 3.46223506,12.7437895 C2.65317293,12.7437895 2.16911278,13.2344673 2.16911278,14.0417113 C2.17668698,18.5479639 2.18357262,23.0562809 2.18976969,27.5611571 C2.19114681,28.3917995 2.67864978,28.8721545 3.51456589,28.8721545 C9.1607867,28.8611435 14.806319,28.8528852 20.455294,28.8425624 C20.5282818,28.8425624 20.6005809,28.8425624 20.6721915,28.8398097 C21.3566237,28.8287987 21.8696035,28.3195398 21.8696035,27.6396105 C21.8613407,23.0610982 21.8544551,18.4832742 21.8434381,13.9061384 C21.8434381,13.4402354 21.6320491,13.0679259 21.2099596,12.8635341 C21.0095877,12.7658115 20.7596391,12.7224557 20.5296589,12.7224557 C17.685203,12.7183265 14.8386814,12.727273 11.9949141,12.7293375 Z M19.8183728,11.2043138 L20.6060894,11.2043138 C22.17326,11.2063783 23.3527693,12.3762973 23.3596549,13.9433005 C23.365852,18.5032317 23.3727376,23.0666037 23.3796233,27.6203412 C23.3796233,29.1715161 22.1946055,30.3517579 20.6343205,30.3572634 C18.503905,30.3641452 16.3741781,30.3655216 14.2423854,30.3703389 C10.6529038,30.3758444 7.05309379,30.3813499 3.46223506,30.3841027 C2.13881599,30.3882318 1.05570558,29.5617185 0.761000396,28.3167871 C0.708669569,28.1048253 0.684569846,27.8722179 0.684569846,27.6540624 C0.670798575,23.1003249 0.664601504,18.5452111 0.661158686,13.9907854 C0.661158686,12.8270602 1.19892679,11.9874713 2.24485477,11.4733951 C2.61943332,11.2875845 3.02568579,11.2215185 3.44364385,11.2297767 C3.68119826,11.2318413 3.92357262,11.2297767 4.18591531,11.2297767 L4.18591531,11.0185031 C4.18591531,10.1809788 4.18384962,9.34207809 4.18384962,8.49836007 C4.17902968,4.64726216 6.86236169,1.43549055 10.6611666,0.749367497 C14.7842849,0.0061248698 18.877795,2.79397291 19.6565603,6.89694749 C19.7550249,7.41171182 19.7935845,7.93748716 19.8073558,8.46395069 C19.8342097,9.30009865 19.8142414,10.1417521 19.8183728,10.9854701 L19.8183728,11.2043138 Z" id="Stroke-41" stroke="#EFEFEF" stroke-width="0.688563514"></path>
                    <path d="M11.2624203,22.8355103 L11.2624203,24.5573558 C11.2693059,24.9172779 11.4910233,25.2076931 11.8222224,25.299222 C12.3200538,25.4375477 12.7779486,25.0693674 12.7813914,24.5318928 C12.7848342,23.4459328 12.7848342,22.3599727 12.7745057,21.2698835 C12.7683087,20.8934449 12.9073985,20.6339982 13.2310233,20.4337356 C14.0552339,19.921724 14.4470265,18.9431212 14.2218662,17.9954868 C14.0070344,17.0746918 13.200038,16.3651704 12.2532632,16.2640068 C11.2032038,16.1607786 10.2102952,16.7870294 9.87014484,17.7787077 C9.52242026,18.788279 9.91008152,19.8907555 10.8231167,20.4468111 C11.1267732,20.6339982 11.2693059,20.8810575 11.2624203,21.2389151 C11.2500261,21.7695077 11.2624203,22.3021649 11.2624203,22.8355103 M9.75033478,23.2429174 C9.75033478,22.7295295 9.7537776,22.2161415 9.74344915,21.7000008 C9.74000633,21.6174183 9.68905263,21.5183192 9.62983617,21.4605115 C8.42209577,20.4082726 7.95869252,19.0897051 8.36976494,17.5502294 C8.78290305,16.0018073 9.85086506,15.076195 11.4345611,14.7919735 C13.4857918,14.4279222 15.4970859,15.9281712 15.7580514,18.0023687 C15.9315694,19.3849376 15.471609,20.5314582 14.4125983,21.4378013 C14.3175766,21.5196956 14.2872798,21.5988372 14.2872798,21.7144527 C14.290034,22.6579579 14.2969197,23.6000868 14.2934769,24.5449684 C14.290034,25.6460686 13.558091,26.5641109 12.5094088,26.78846 C11.0820166,27.0912626 9.77443451,26.0383355 9.7537776,24.5683668 C9.74895766,24.1231094 9.7537776,23.6812929 9.75033478,23.2429174" id="Fill-43" fill="#EFEFEF"></path>
                    <path d="M11.2624203,22.8355103 L11.2624203,24.5573558 C11.2693059,24.9172779 11.4910233,25.2076931 11.8222224,25.299222 C12.3200538,25.4375477 12.7779486,25.0693674 12.7813914,24.5318928 C12.7848342,23.4459328 12.7848342,22.3599727 12.7745057,21.2698835 C12.7683087,20.8934449 12.9073985,20.6339982 13.2310233,20.4337356 C14.0552339,19.921724 14.4470265,18.9431212 14.2218662,17.9954868 C14.0070344,17.0746918 13.200038,16.3651704 12.2532632,16.2640068 C11.2032038,16.1607786 10.2102952,16.7870294 9.87014484,17.7787077 C9.52242026,18.788279 9.91008152,19.8907555 10.8231167,20.4468111 C11.1267732,20.6339982 11.2693059,20.8810575 11.2624203,21.2389151 C11.2500261,21.7695077 11.2624203,22.3021649 11.2624203,22.8355103 Z M9.75033478,23.2429174 C9.75033478,22.7295295 9.7537776,22.2161415 9.74344915,21.7000008 C9.74000633,21.6174183 9.68905263,21.5183192 9.62983617,21.4605115 C8.42209577,20.4082726 7.95869252,19.0897051 8.36976494,17.5502294 C8.78290305,16.0018073 9.85086506,15.076195 11.4345611,14.7919735 C13.4857918,14.4279222 15.4970859,15.9281712 15.7580514,18.0023687 C15.9315694,19.3849376 15.471609,20.5314582 14.4125983,21.4378013 C14.3175766,21.5196956 14.2872798,21.5988372 14.2872798,21.7144527 C14.290034,22.6579579 14.2969197,23.6000868 14.2934769,24.5449684 C14.290034,25.6460686 13.558091,26.5641109 12.5094088,26.78846 C11.0820166,27.0912626 9.77443451,26.0383355 9.7537776,24.5683668 C9.74895766,24.1231094 9.7537776,23.6812929 9.75033478,23.2429174 Z" id="Stroke-45" stroke="#EFEFEF" stroke-width="0.688563514"></path>
                    <path d="M58.4061607,110.338841 C61.5804385,110.338841 64.7547163,110.330583 67.9289941,110.347788 C68.3682976,110.35054 68.5363071,110.267958 68.5342414,109.778656 C68.5142731,105.529098 68.5246015,101.279539 68.5204701,97.0299809 C68.5204701,95.8112006 67.9276169,95.222112 66.7067938,95.2214238 C61.1748746,95.2193592 55.6415782,95.2193592 50.1089703,95.2214238 C48.89159,95.222112 48.289097,95.8194588 48.2877198,97.0299809 C48.284277,101.279539 48.2939169,105.529098 48.2746371,109.778656 C48.2718829,110.268646 48.4412695,110.35054 48.8798844,110.347788 C52.0555394,110.330583 55.2305057,110.338841 58.4061607,110.338841 M70.8533233,113.726101 C70.8533233,114.331706 70.8533233,114.939375 70.8547004,115.546357 C70.6901338,115.920043 70.3513605,115.798922 70.0752465,115.798922 C65.0377159,115.805115 59.9988081,115.803739 54.9592117,115.803739 C52.1987606,115.803739 49.4376209,115.805115 46.6778583,115.798922 C46.4155156,115.798922 46.1008421,115.899397 45.9548666,115.546357 C45.9555552,114.939375 45.9562438,114.333082 45.9562438,113.726101 C46.3824646,112.861049 46.7962913,111.992556 47.2362833,111.135074 C47.3953415,110.826078 47.4621322,110.520523 47.460755,110.176429 C47.454558,105.853922 47.4559351,101.531416 47.4573122,97.2068451 C47.4573122,95.3803951 48.4068413,94.4272553 50.2308461,94.4272553 C55.6884005,94.4251907 61.1466435,94.4251907 66.6041979,94.4272553 C68.3979058,94.4272553 69.3515663,95.3824597 69.3515663,97.1738121 C69.3522548,101.163236 69.3625833,105.152659 69.3446806,109.142771 C69.3398607,110.115868 69.3674032,111.067632 69.7564416,111.977416 C69.8755631,112.252691 69.9265168,112.547923 69.5553811,112.660786 C69.2262477,112.760573 69.1140119,112.50732 69.0189901,112.242368 C68.6258203,111.149526 68.6223775,111.150903 67.4814278,111.150903 C61.2258283,111.150903 54.9695402,111.15572 48.7132521,111.14058 C48.2615544,111.14058 48.0067859,111.256195 47.8277594,111.686313 C47.5640396,112.317381 47.2252663,112.918857 46.918167,113.533408 C46.8603277,113.648335 46.7949141,113.763951 46.7591088,113.88576 C46.5070946,114.742554 46.7047123,115.009571 47.579188,115.009571 C54.8758955,115.009571 62.1719145,115.011635 69.4658678,115.002001 C69.6800111,115.002001 70.0132758,115.18437 70.0883292,114.758382 C70.167514,114.30349 69.9251397,114.251876 69.5443641,114.253252 C65.4797736,114.262887 61.4144947,114.258758 57.3492157,114.258758 L48.382053,114.258758 C48.2340119,114.258758 48.0845936,114.260134 47.937241,114.253941 C47.6831611,114.243618 47.487609,114.128002 47.4821005,113.864426 C47.4752149,113.602227 47.6666355,113.474224 47.9158955,113.450826 C48.0632481,113.436374 48.2126664,113.441879 48.3607076,113.441879 C55.5823617,113.441879 62.805393,113.441191 70.0242928,113.446008 C70.3231294,113.446696 70.6777396,113.337275 70.8533233,113.726101" id="Fill-47" fill="#EFEFEF"></path>
                    <path d="M58.4061607,110.338841 C61.5804385,110.338841 64.7547163,110.330583 67.9289941,110.347788 C68.3682976,110.35054 68.5363071,110.267958 68.5342414,109.778656 C68.5142731,105.529098 68.5246015,101.279539 68.5204701,97.0299809 C68.5204701,95.8112006 67.9276169,95.222112 66.7067938,95.2214238 C61.1748746,95.2193592 55.6415782,95.2193592 50.1089703,95.2214238 C48.89159,95.222112 48.289097,95.8194588 48.2877198,97.0299809 C48.284277,101.279539 48.2939169,105.529098 48.2746371,109.778656 C48.2718829,110.268646 48.4412695,110.35054 48.8798844,110.347788 C52.0555394,110.330583 55.2305057,110.338841 58.4061607,110.338841 Z M70.8533233,113.726101 C70.8533233,114.331706 70.8533233,114.939375 70.8547004,115.546357 C70.6901338,115.920043 70.3513605,115.798922 70.0752465,115.798922 C65.0377159,115.805115 59.9988081,115.803739 54.9592117,115.803739 C52.1987606,115.803739 49.4376209,115.805115 46.6778583,115.798922 C46.4155156,115.798922 46.1008421,115.899397 45.9548666,115.546357 C45.9555552,114.939375 45.9562438,114.333082 45.9562438,113.726101 C46.3824646,112.861049 46.7962913,111.992556 47.2362833,111.135074 C47.3953415,110.826078 47.4621322,110.520523 47.460755,110.176429 C47.454558,105.853922 47.4559351,101.531416 47.4573122,97.2068451 C47.4573122,95.3803951 48.4068413,94.4272553 50.2308461,94.4272553 C55.6884005,94.4251907 61.1466435,94.4251907 66.6041979,94.4272553 C68.3979058,94.4272553 69.3515663,95.3824597 69.3515663,97.1738121 C69.3522548,101.163236 69.3625833,105.152659 69.3446806,109.142771 C69.3398607,110.115868 69.3674032,111.067632 69.7564416,111.977416 C69.8755631,112.252691 69.9265168,112.547923 69.5553811,112.660786 C69.2262477,112.760573 69.1140119,112.50732 69.0189901,112.242368 C68.6258203,111.149526 68.6223775,111.150903 67.4814278,111.150903 C61.2258283,111.150903 54.9695402,111.15572 48.7132521,111.14058 C48.2615544,111.14058 48.0067859,111.256195 47.8277594,111.686313 C47.5640396,112.317381 47.2252663,112.918857 46.918167,113.533408 C46.8603277,113.648335 46.7949141,113.763951 46.7591088,113.88576 C46.5070946,114.742554 46.7047123,115.009571 47.579188,115.009571 C54.8758955,115.009571 62.1719145,115.011635 69.4658678,115.002001 C69.6800111,115.002001 70.0132758,115.18437 70.0883292,114.758382 C70.167514,114.30349 69.9251397,114.251876 69.5443641,114.253252 C65.4797736,114.262887 61.4144947,114.258758 57.3492157,114.258758 L48.382053,114.258758 C48.2340119,114.258758 48.0845936,114.260134 47.937241,114.253941 C47.6831611,114.243618 47.487609,114.128002 47.4821005,113.864426 C47.4752149,113.602227 47.6666355,113.474224 47.9158955,113.450826 C48.0632481,113.436374 48.2126664,113.441879 48.3607076,113.441879 C55.5823617,113.441879 62.805393,113.441191 70.0242928,113.446008 C70.3231294,113.446696 70.6777396,113.337275 70.8533233,113.726101 Z" id="Stroke-49" stroke="#EFEFEF" stroke-width="0.688563514"></path>
                    <path d="M58.4068492,96.3173626 C61.2650764,96.3173626 64.1253692,96.3166744 66.9822192,96.3173626 C67.7293106,96.3173626 67.7802643,96.3682885 67.7802643,97.1012083 C67.78233,100.348077 67.78233,103.594947 67.7802643,106.841816 C67.7802643,107.007669 67.78233,107.179028 67.7451476,107.338687 C67.7024567,107.517616 67.5606126,107.616027 67.3719462,107.61121 C67.1853455,107.606392 67.0462556,107.507981 67.0152703,107.322859 C66.9835964,107.141866 66.9822192,106.95399 66.9822192,106.768868 C66.979465,103.72639 66.9732679,100.682537 66.9884163,97.6400592 C66.990482,97.2182002 66.8954602,97.0647343 66.4382541,97.0667989 C61.0929355,97.0833154 55.7469284,97.0833154 50.4002327,97.0667989 C49.9223696,97.0647343 49.817708,97.217512 49.8197736,97.6655221 C49.8376763,101.043147 49.8404306,104.420084 49.817708,107.79702 C49.8142651,108.296644 49.9609292,108.41226 50.4436122,108.410195 C55.845393,108.393679 61.2485509,108.399873 66.6496431,108.399873 C66.7983728,108.399873 66.9457254,108.400561 67.0951436,108.399873 C67.3988002,108.397808 67.760296,108.38198 67.7575417,108.794204 C67.7554761,109.207117 67.3932917,109.185095 67.0896351,109.185095 C61.298816,109.185095 55.5066197,109.181654 49.7137349,109.191977 C49.2152149,109.191977 49.0189743,109.020618 49.02104,108.510671 C49.0334341,104.669896 49.0334341,100.829121 49.02104,96.9876573 C49.0189743,96.4770221 49.2193463,96.3070398 49.7185548,96.3097925 C52.6146529,96.3242445 55.5107511,96.3173626 58.4068492,96.3173626" id="Fill-51" fill="#EFEFEF"></path>
                    <path d="M58.4068492,96.3173626 C61.2650764,96.3173626 64.1253692,96.3166744 66.9822192,96.3173626 C67.7293106,96.3173626 67.7802643,96.3682885 67.7802643,97.1012083 C67.78233,100.348077 67.78233,103.594947 67.7802643,106.841816 C67.7802643,107.007669 67.78233,107.179028 67.7451476,107.338687 C67.7024567,107.517616 67.5606126,107.616027 67.3719462,107.61121 C67.1853455,107.606392 67.0462556,107.507981 67.0152703,107.322859 C66.9835964,107.141866 66.9822192,106.95399 66.9822192,106.768868 C66.979465,103.72639 66.9732679,100.682537 66.9884163,97.6400592 C66.990482,97.2182002 66.8954602,97.0647343 66.4382541,97.0667989 C61.0929355,97.0833154 55.7469284,97.0833154 50.4002327,97.0667989 C49.9223696,97.0647343 49.817708,97.217512 49.8197736,97.6655221 C49.8376763,101.043147 49.8404306,104.420084 49.817708,107.79702 C49.8142651,108.296644 49.9609292,108.41226 50.4436122,108.410195 C55.845393,108.393679 61.2485509,108.399873 66.6496431,108.399873 C66.7983728,108.399873 66.9457254,108.400561 67.0951436,108.399873 C67.3988002,108.397808 67.760296,108.38198 67.7575417,108.794204 C67.7554761,109.207117 67.3932917,109.185095 67.0896351,109.185095 C61.298816,109.185095 55.5066197,109.181654 49.7137349,109.191977 C49.2152149,109.191977 49.0189743,109.020618 49.02104,108.510671 C49.0334341,104.669896 49.0334341,100.829121 49.02104,96.9876573 C49.0189743,96.4770221 49.2193463,96.3070398 49.7185548,96.3097925 C52.6146529,96.3242445 55.5107511,96.3173626 58.4068492,96.3173626 Z" id="Stroke-53" stroke="#EFEFEF" stroke-width="0.688563514"></path>
                    <path d="M38.667799,50.453787 C40.1124052,50.5473805 41.1851872,51.9877572 40.8312655,53.597428 C40.4043562,55.5353644 40.1199794,57.5042691 39.773632,59.4594102 C39.6207709,60.3217092 39.4796154,61.1853847 39.3095402,62.0435547 C39.0774943,63.2155382 38.0673716,64.07302 36.8988793,64.0737081 C30.4250051,64.0799018 23.9504424,64.0764609 17.4772568,64.0750845 C17.387055,64.0750845 17.2961646,64.0551271 17.2066514,64.0441161 C17.3140673,63.4034134 17.4042691,62.759958 17.533719,62.1240726 C17.7519937,61.0539409 17.9379058,59.9776154 18.1341464,58.9054191 C18.3469125,57.7437584 18.5748271,56.5834741 18.7600507,55.4156197 C18.8881235,54.6083756 19.0334104,53.8031961 19.1855829,52.999393 C19.3060815,52.3593785 19.4203831,51.7152349 19.9065089,51.2149225 C20.5282818,50.5769726 21.3187527,50.4173131 22.157423,50.4159367 C27.3705374,50.4111194 32.5829632,50.4111194 37.795389,50.4200658 C38.1114397,50.4200658 38.4095877,50.4372705 38.667799,50.453787" id="Fill-55" fill="#FFE800"></path>
                </g>
                <g id="Group-60" transform="translate(125.318560, 106.052657)">
                    <path d="M8.7,0.169294154 C7.88887218,0.172735092 7.0770558,0.172046904 6.26592798,0.172046904 C5.0595647,0.170670529 3.85251286,0.169294154 2.64614958,0.180993343 C1.74275425,0.189939782 1.0548793,0.635197171 0.57013059,1.39289174 C0.254079937,1.88769864 0.196240602,2.44650698 0.196240602,3.01357358 C0.193486347,7.74073432 0.193486347,12.4692714 0.197617729,17.1971204 C0.197617729,17.4834064 0.227914523,17.771757 0.274048279,18.0546021 C0.421400871,18.9650744 1.25593985,19.7847058 2.15864662,19.9230315 C2.26743965,19.8858694 2.37623269,19.8507718 2.4457776,19.9877212 C2.54424218,20.0324534 2.64408389,20.0413998 2.74667986,20.0001085 C2.85409577,19.3600941 2.94429759,18.7152623 3.07374753,18.0800651 C3.29202216,17.0099333 3.47793431,15.9336079 3.67417491,14.8614116 C3.88694104,13.6990627 4.11485556,12.5401548 4.30007915,11.3716122 C4.42815196,10.5650563 4.57343886,9.75987679 4.7256114,8.95538547 C4.84611001,8.31537098 4.96110012,7.67122737 5.4465374,7.17091498 C6.06831025,6.53227687 6.85878116,6.37330553 7.69745152,6.37192915 C12.9105659,6.36642365 18.1236803,6.36642365 23.3361061,6.37605828 C23.6521567,6.37605828 23.8153463,6.36848821 23.8146577,5.9968669 C23.8153463,5.4965545 23.8146577,5.27014078 23.8146577,4.96183272 C23.8112149,4.39889525 23.579169,3.92473398 23.2197388,3.50975685 C22.6771508,2.88006518 21.969996,2.6564042 21.1540483,2.65915695 C19.5875663,2.66397427 18.0217729,2.66397427 16.456668,2.66397427 C14.9432054,2.66397427 13.4290542,2.66397427 11.9155916,2.66741521 C11.5761298,2.66810339 11.3220499,2.57175713 11.0844954,2.3233214 C10.4585912,1.67160772 9.80789869,1.04329243 9.17028888,0.402589756 C9.03808469,0.269769546 8.91207756,0.169294154 8.70206569,0.169294154 C8.70137713,0.169294154 8.70068856,0.169294154 8.7,0.169294154" id="Fill-58"></path>
                </g>
                <g id="Group-83" transform="translate(11.600000, 30.655106)">
                    <path d="M217.58607,152.602232 C217.58607,153.945574 216.495386,155.035664 215.15131,155.035664 C213.807234,155.035664 212.716549,153.945574 212.716549,152.602232 C212.716549,151.258202 213.807234,150.169489 215.15131,150.169489 C216.495386,150.169489 217.58607,151.258202 217.58607,152.602232" id="Fill-61" fill="#EFEFEF"></path>
                    <path d="M97.2044424,16.949304 C97.2044424,18.2926462 96.1137578,19.3827354 94.7696818,19.3827354 C93.4256059,19.3827354 92.3349213,18.2926462 92.3349213,16.949304 C92.3349213,15.6052736 93.4256059,14.5165608 94.7696818,14.5165608 C96.1137578,14.5165608 97.2044424,15.6052736 97.2044424,16.949304" id="Fill-63" fill="#EFEFEF"></path>
                    <path d="M39.1559905,150.10418 C39.1559905,151.446834 38.0653059,152.536923 36.7212299,152.536923 C35.3771539,152.536923 34.2864693,151.446834 34.2864693,150.10418 C34.2864693,148.760149 35.3771539,147.671437 36.7212299,147.671437 C38.0653059,147.671437 39.1559905,148.760149 39.1559905,150.10418" id="Fill-65" fill="#EFEFEF"></path>
                    <path d="M192.055444,109.314336 L192.055444,120.325338" id="Stroke-67" stroke="#EFEFEF" stroke-width="2.06569054" stroke-linecap="round" stroke-linejoin="round"></path>
                    <path d="M197.563952,114.819837 L186.546935,114.819837" id="Stroke-69" stroke="#EFEFEF" stroke-width="2.06569054" stroke-linecap="round" stroke-linejoin="round"></path>
                    <path d="M5.67596676,111.944727 L5.67596676,122.955729" id="Stroke-71" stroke="#EFEFEF" stroke-width="2.06569054" stroke-linecap="round" stroke-linejoin="round"></path>
                    <path d="M11.1844749,117.450228 L0.167458647,117.450228" id="Stroke-73" stroke="#EFEFEF" stroke-width="2.06569054" stroke-linecap="round" stroke-linejoin="round"></path>
                    <path d="M149.643512,0.30679404 L149.643512,11.3177959" id="Stroke-75" stroke="#EFEFEF" stroke-width="2.06569054" stroke-linecap="round" stroke-linejoin="round"></path>
                    <path d="M155.15202,5.81229498 L144.135004,5.81229498" id="Stroke-77" stroke="#EFEFEF" stroke-width="2.06569054" stroke-linecap="round" stroke-linejoin="round"></path>
                    <path d="M231.038605,103.808835 L231.038605,114.819837" id="Stroke-79" stroke="#EFEFEF" stroke-width="2.06569054" stroke-linecap="round" stroke-linejoin="round"></path>
                    <path d="M236.547113,109.314336 L225.530097,109.314336" id="Stroke-81" stroke="#EFEFEF" stroke-width="2.06569054" stroke-linecap="round" stroke-linejoin="round"></path>
                </g>
                <g id="Group-86" transform="translate(167.320934, 53.062210)" fill="url(#linearGradient-1)">
                    <path d="M38.978892,0.468655768 C26.9524416,2.81812829 14.928057,5.17035357 2.87268698,7.38425314 C0.904083894,7.74623982 0.379398496,8.50393439 0.402121092,10.4294833 C0.506782746,18.9058902 0.309853581,49.8068906 0.365627226,56.9358262 C0.435860704,66.2105307 3.39117531,73.664979 9.33829838,80.2571282 C17.6361773,89.4568202 28.0142066,95.6745954 39.2088722,100.677031 C40.0647566,101.061728 40.8049624,101.253732 41.7372774,100.827744 C54.660926,94.9499338 66.6777364,87.8148046 75.2214325,76.0626246 C79.0470914,70.8055594 80.9785121,64.9752339 80.8772932,58.2784802 C80.6300989,42.4467241 80.7602374,26.6053333 80.8442422,10.7666953 C80.8566363,8.60440978 80.3450336,7.73522882 78.0424772,7.32162806 C66.0924575,5.17241813 54.1816858,2.80367635 42.2681599,0.468655768 C41.7056035,0.358545749 41.1643926,0.303490739 40.6231816,0.303490739 C40.0819707,0.303490739 39.5407598,0.358545749 38.978892,0.468655768" id="Fill-84"></path>
                </g>
                <path d="M237.090389,69.9701542 C227.781699,68.2957938 218.504683,66.4507628 209.222847,64.6311947 C208.348371,64.4605242 207.537932,64.4605242 206.662079,64.6311947 C197.294173,66.462462 187.927643,68.2944174 178.537014,70.0183274 C177.004271,70.3011725 176.595953,70.8902611 176.613167,72.3911983 C176.694418,78.9936703 176.541557,103.06372 176.584248,108.616706 C176.638644,115.8413 178.941201,121.647539 183.573856,126.782107 C190.036713,133.947516 198.121137,138.791669 206.841106,142.688875 C207.507635,142.987549 208.083274,143.136885 208.810397,142.805867 C218.877884,138.227355 228.238217,132.669552 234.892495,123.51528 C237.873286,119.420564 239.377797,114.878525 239.297924,109.66344 C239.106503,97.3297412 239.207034,84.9912254 239.271759,72.6533978 C239.281398,70.9694027 238.884786,70.292226 237.090389,69.9701542 Z" id="Fill-87" fill="#007DD5"></path>
                <g id="Group-91" transform="translate(176.272260, 66.812506)" fill="url(#linearGradient-2)">
                    <path d="M2.2646854,5.28046359 C0.732631579,5.53922213 0.323624852,6.07876123 0.340838939,7.45100734 C0.422089434,13.4919182 0.269228334,39.653063 0.311919272,44.733264 C0.366315789,51.3419296 2.66887218,56.6540499 7.30221607,61.3502422 C13.7643846,67.9059174 21.8488089,72.3371575 30.5687772,75.9019693 C31.2359953,76.175868 31.8109458,76.3128173 32.5373803,76.0100148 C42.605556,71.8210168 51.9651998,66.7366866 58.6201662,58.3621315 C61.6009577,54.6170145 63.1061575,50.4617377 63.0255956,45.6905329 C62.8341749,34.4076969 62.9347052,18.9781499 62.9994302,7.69118481 C63.00907,6.15033274 62.6124575,5.53165207 60.8180609,5.23573139 C51.5100594,3.70520213 42.2323546,2.01638972 32.951207,0.35235206 C32.5132806,0.274586859 32.0918797,0.236048353 31.6704788,0.236048353 C31.249078,0.236048353 30.8276771,0.274586859 30.3897507,0.35235206 C21.0225326,2.02808891 11.6553146,3.70382576 2.2646854,5.28046359 Z" id="Fill-89"></path>
                </g>
                <g id="Group-98" transform="translate(23.411159, 88.159779)">
                    <polyline id="Stroke-92" stroke="#FFFFFF" stroke-width="4.8199446" points="168.566958 15.529573 180.229847 26.7174391 200.487386 0.198129215"></polyline>
                    <path d="M50.0153257,116.710977 C48.5039288,126.677998 41.540486,124.724922 41.871685,124.286546 C45.454281,119.554568 41.871685,115.962917 41.871685,115.962917 C41.871685,115.962917 11.4385548,93.9471068 4.18522675,89.1139652 C-3.06810131,84.2808235 2.57329956,78.3741092 2.57329956,78.3741092 C2.57329956,78.3741092 41.2574863,53.1362047 48.2408975,48.3030631 C55.2249972,43.4699214 64.6287091,39.980122 64.6287091,39.980122 L63.2853217,25.7504666 C63.2853217,25.7504666 61.4048548,15.0106107 65.971408,10.7149436 C70.5379612,6.41927646 79.1353653,12.5936958 82.3585311,21.1857182 C85.5823854,29.7777406 79.1353653,30.8520014 79.1353653,30.8520014 L79.1353653,39.980122 C79.1353653,39.980122 102.505899,41.0536947 108.685068,53.672991 C114.864237,66.2922874 135.021934,98.7795602 135.021934,98.7795602 C135.021934,98.7795602 162.423319,105.223749 168.87034,104.955356 C168.87034,104.955356 176.394962,102.593496 178.369073,102.875653 C180.342496,103.157122 183.727474,103.439279 182.457763,104.425451 C181.188052,105.412313 178.650696,104.567218 178.650696,104.567218 C178.650696,104.567218 187.394075,105.694469 189.086564,105.83486 C189.086564,105.83486 189.790965,109.499459 183.445163,109.922694 C177.099362,110.34593 170.213038,109.787809 170.213038,109.787809 C168.332571,109.787809 133.409319,111.398857 133.409319,111.398857 L107.878761,83.2072508 L108.819338,115.694524 L46.8981987,116.768785 L41.871685,73.0041812 L17.0799557,86.6977384 L46.2475061,111.10913" id="Fill-94" fill="#FFBA72"></path>
                    <path d="M168.870202,104.955356 C162.423182,105.223749 135.021797,98.7795602 135.021797,98.7795602 C135.021797,98.7795602 114.8641,66.2922874 108.684931,53.672991 C105.025216,46.1992735 95.3350613,42.7755401 88.0417966,41.2264298 C87.2430629,45.2832958 84.1885952,51.2567643 73.1151167,51.2567643 C60.6094262,51.2567643 57.1576573,46.2385002 56.2108825,43.6880769 C53.6101781,44.983246 50.7670993,46.5543783 48.2414484,48.3030631 C41.2573486,53.1362047 2.57316185,78.3741092 2.57316185,78.3741092 C2.57316185,78.3741092 -3.06823902,84.2808235 4.18508904,89.1139652 C11.4384171,93.9471068 41.8722359,115.962917 41.8722359,115.962917 C41.8722359,115.962917 41.9231896,116.015219 42.0016858,116.107436 C43.1963435,113.823342 44.481203,111.418814 45.202129,110.235131 L17.079818,86.6977384 L41.8722359,73.0041812 L46.0951959,109.780928 C47.1721092,111.138033 50.015188,116.710977 50.015188,116.710977 L50.0317135,116.715106 L108.819201,115.694524 L107.878623,83.2072508 L133.409181,111.398857 C133.409181,111.398857 168.332434,109.787809 170.212901,109.787809 C170.555805,109.787809 170.809197,110.058267 171.009569,110.492513 C171.148658,108.50021 171.279486,106.554016 171.398607,104.73376 C170.597808,104.834923 169.75776,104.918194 168.870202,104.955356" id="Fill-96" fill="#EFEFEF"></path>
                </g>
                <g id="Group-101" transform="translate(48.947764, 203.775299)" fill="url(#linearGradient-3)">
                    <polygon id="Fill-99" points="21.3614563 1.01370036 0.0740352081 142.87779 48.2381005 28.9343333 31.0585528 174.269626 79.1181638 0.0798297636"></polygon>
                </g>
                <path d="M87.099222,108.036908 C87.099222,108.036908 90.6253558,106.6275 89.8190479,102.499062 C89.8190479,102.499062 100.396761,103.506569 97.5764044,94.1424002 C94.7553597,84.7789195 85.4872948,91.6256981 85.3867645,101.089654 C85.2862343,110.554299 81.2567606,107.231729 87.5020317,112.768886 C93.7479913,118.306732 94.3525501,125.253986 104.627983,119.615665 C114.903417,113.977344 103.998636,105.692941 103.998636,105.692941 C103.998636,105.692941 96.9057436,105.792728 95.1588579,112.567247 C95.1588579,112.567247 90.3671444,109.625245 88.1065904,110.453135 L87.099222,108.036908 Z" id="Fill-102" fill="#434141"></path>
                <g id="Group-106" transform="translate(21.345469, 126.698285)" fill="url(#linearGradient-4)">
                    <path d="M0.610067273,44.6695701 C0.672726553,54.8733279 40.6369529,77.1568429 40.6369529,77.1568429 L46.5468935,68.5648205 L19.1455085,48.1586813 L43.9379264,34.4658123 L48.9637515,81.7215914 L77.7085239,81.7215914 L72.6048912,21.0420246 L64.5452552,17.8866844 L72.8059517,12.8532801 L64.3435061,0.166541403 C64.3435061,0.166541403 0.54671943,34.4658123 0.610067273,44.6695701" id="Fill-104"></path>
                </g>
                <g id="Group-109" transform="translate(101.218837, 125.321910)" fill="url(#linearGradient-5)">
                    <path d="M3.47655718,0.401901569 L0.25270281,14.4306062 L9.25153937,15.4374246 L0.462714681,22.4989178 L6.96895133,83.0979666 L33.2954887,83.0979666 L30.0716343,46.0452571 L55.6015038,74.2368629 L89.7191373,75.8485983 L91.8688326,65.6448405 L57.2141195,61.6175665 L31.4157103,13.0218861 C31.4157103,13.0218861 23.5206411,0.398460631 4.08731302,0.397772443 C3.88418678,0.397772443 3.68174911,0.399148818 3.47655718,0.401901569" id="Fill-107"></path>
                </g>
                <g id="Group-117" transform="translate(94.724970, 132.891974)" fill="#004E8F">
                    <polygon id="Fill-110" points="5.58675267 12.7009154 4.0877499 10.5888676 5.51858488 5.24509075 2.37184962 0.643180147 0.346095766 5.39029833 2.61628967 10.7650436 0.970622873 13.9086847 4.32943569 51.7658855 7.55191294 53.6460141 9.29879858 51.3632958"></polygon>
                    <polygon id="Fill-114" points="36.5650875 38.475331 35.2891793 24.3798722 62.0956454 66.6669367"></polygon>
                </g>
            </g>
        </g>
    </g>
</svg>